<svg width="27" height="27" viewBox="0 0 27 27" fill="none" xmlns="http://www.w3.org/2000/svg">
<g clip-path="url(#clip0_1_552)">
<g clip-path="url(#clip1_1_552)">
<path d="M0.0147705 13.6685L17.7256 13.7167" stroke="white" stroke-width="1.4855" stroke-miterlimit="10"/>
<path d="M18.342 14.2404C18.4122 14.1713 18.4679 14.0889 18.506 13.998C18.544 13.9072 18.5636 13.8097 18.5636 13.7112C18.5636 13.6127 18.544 13.5152 18.506 13.4243C18.4679 13.3335 18.4122 13.2511 18.342 13.182L13.5773 8.42094C13.5078 8.35122 13.4253 8.29588 13.3344 8.25808C13.2436 8.22029 13.1462 8.20078 13.0477 8.20068C12.9493 8.20059 12.8519 8.2199 12.7609 8.25751C12.67 8.29512 12.5874 8.3503 12.5178 8.41989C12.4482 8.48947 12.393 8.5721 12.3554 8.66304C12.3178 8.75397 12.2985 8.85143 12.2986 8.94984C12.2987 9.04825 12.3182 9.14567 12.356 9.23653C12.3938 9.3274 12.4491 9.40991 12.5188 9.47936L16.7525 13.713L12.5188 17.9467C12.3789 18.0872 12.3005 18.2774 12.3007 18.4756C12.3009 18.6738 12.3797 18.8639 12.5199 19.0041C12.6601 19.1442 12.8501 19.2231 13.0484 19.2233C13.2466 19.2235 13.4368 19.145 13.5773 19.0051L18.342 14.2404Z" fill="white"/>
<path d="M0.746338 13.1672C0.746338 13.2786 0.746338 13.39 0.746338 13.5014C0.746589 16.6422 1.90553 19.6726 4.00119 22.0121C6.09685 24.3515 8.98191 25.8356 12.1038 26.1801C15.2257 26.5247 18.3649 25.7054 20.9203 23.8792C23.4757 22.053 25.2675 19.3482 25.9526 16.283C26.6377 13.2178 26.168 10.0076 24.6333 7.26723C23.0986 4.52685 20.6069 2.44896 17.6355 1.43152C14.664 0.414082 11.4216 0.528627 8.52932 1.75322C5.63704 2.9778 3.2982 5.22635 1.96073 8.06819" stroke="white" stroke-width="1.4855" stroke-miterlimit="10" stroke-dasharray="74.88 74.88"/>
</g>
</g>
<defs>
<clipPath id="clip0_1_552">
<rect width="27" height="27" fill="white"/>
</clipPath>
<clipPath id="clip1_1_552">
<rect width="27" height="27" fill="white"/>
</clipPath>
</defs>
</svg>
